<mxfile host="65bd71144e">
    <diagram id="Yu2Rz-5dotqBiI_etyf0" name="Page-1">
        <mxGraphModel dx="633" dy="484" grid="0" gridSize="10" guides="1" tooltips="1" connect="1" arrows="1" fold="1" page="1" pageScale="1" pageWidth="850" pageHeight="1100" math="0" shadow="0">
            <root>
                <mxCell id="0"/>
                <mxCell id="1" parent="0"/>
                <mxCell id="142" value="" style="rounded=0;whiteSpace=wrap;html=1;dashed=1;" parent="1" vertex="1">
                    <mxGeometry x="526.5" y="531" width="247" height="94" as="geometry"/>
                </mxCell>
                <mxCell id="2" value="" style="rounded=0;whiteSpace=wrap;html=1;dashed=1;" parent="1" vertex="1">
                    <mxGeometry x="285" y="144" width="280" height="240" as="geometry"/>
                </mxCell>
                <mxCell id="11" style="edgeStyle=none;html=1;exitX=1;exitY=0.5;exitDx=0;exitDy=0;" parent="1" source="4" target="6" edge="1">
                    <mxGeometry relative="1" as="geometry"/>
                </mxCell>
                <mxCell id="147" style="edgeStyle=none;html=1;exitX=1;exitY=0.25;exitDx=0;exitDy=0;entryX=0;entryY=0.5;entryDx=0;entryDy=0;" parent="1" source="4" target="146" edge="1">
                    <mxGeometry relative="1" as="geometry">
                        <Array as="points">
                            <mxPoint x="426" y="202"/>
                            <mxPoint x="426" y="169"/>
                        </Array>
                    </mxGeometry>
                </mxCell>
                <mxCell id="4" value="Flat cable to pins adapter board" style="rounded=0;whiteSpace=wrap;html=1;fillColor=#60a917;fontColor=#ffffff;strokeColor=#2D7600;" parent="1" vertex="1">
                    <mxGeometry x="295" y="189" width="120" height="50" as="geometry"/>
                </mxCell>
                <mxCell id="6" value="MG90S Servo motors" style="rounded=0;whiteSpace=wrap;html=1;fillColor=#fa6800;fontColor=#000000;strokeColor=#C73500;" parent="1" vertex="1">
                    <mxGeometry x="440" y="189" width="120" height="50" as="geometry"/>
                </mxCell>
                <mxCell id="14" value="Bigtreetech 5-inch HDMI Display" style="rounded=0;whiteSpace=wrap;html=1;fillColor=#0050ef;fontColor=#ffffff;strokeColor=#001DBC;" parent="1" vertex="1">
                    <mxGeometry x="430" y="254" width="120" height="40" as="geometry"/>
                </mxCell>
                <mxCell id="15" value="" style="rounded=0;whiteSpace=wrap;html=1;dashed=1;" parent="1" vertex="1">
                    <mxGeometry x="63" y="488" width="307" height="362" as="geometry"/>
                </mxCell>
                <mxCell id="16" value="" style="rounded=0;whiteSpace=wrap;html=1;dashed=1;" parent="1" vertex="1">
                    <mxGeometry x="526.5" y="675.5" width="247" height="89" as="geometry"/>
                </mxCell>
                <mxCell id="31" style="edgeStyle=none;html=1;exitX=0.25;exitY=1;exitDx=0;exitDy=0;entryX=0;entryY=0.5;entryDx=0;entryDy=0;startArrow=none;fillColor=#e51400;strokeColor=#B20000;strokeWidth=2;" parent="1" source="17" target="19" edge="1">
                    <mxGeometry relative="1" as="geometry">
                        <Array as="points">
                            <mxPoint x="100" y="808"/>
                        </Array>
                        <mxPoint x="110" y="743" as="sourcePoint"/>
                    </mxGeometry>
                </mxCell>
                <mxCell id="17" value="PD 30Ah Battery" style="rounded=0;whiteSpace=wrap;html=1;fillColor=#a20025;fontColor=#ffffff;strokeColor=#6F0000;" parent="1" vertex="1">
                    <mxGeometry x="70" y="588" width="120" height="40" as="geometry"/>
                </mxCell>
                <mxCell id="109" style="edgeStyle=none;html=1;exitX=1;exitY=0.75;exitDx=0;exitDy=0;entryX=0.5;entryY=1;entryDx=0;entryDy=0;strokeColor=#B20000;strokeWidth=2;startArrow=none;startFill=0;fillColor=#e51400;" parent="1" source="18" target="108" edge="1">
                    <mxGeometry relative="1" as="geometry">
                        <Array as="points">
                            <mxPoint x="320" y="570"/>
                        </Array>
                    </mxGeometry>
                </mxCell>
                <mxCell id="18" value="20Ah Battery" style="rounded=0;whiteSpace=wrap;html=1;fillColor=#a20025;fontColor=#ffffff;strokeColor=#6F0000;" parent="1" vertex="1">
                    <mxGeometry x="70" y="540" width="120" height="40" as="geometry"/>
                </mxCell>
                <mxCell id="25" style="edgeStyle=none;html=1;exitX=1;exitY=0.5;exitDx=0;exitDy=0;entryX=0;entryY=0.5;entryDx=0;entryDy=0;" parent="1" source="19" target="22" edge="1">
                    <mxGeometry relative="1" as="geometry">
                        <mxPoint x="430.0000000000002" y="588" as="targetPoint"/>
                        <Array as="points">
                            <mxPoint x="420" y="808"/>
                            <mxPoint x="420" y="578"/>
                        </Array>
                    </mxGeometry>
                </mxCell>
                <mxCell id="131" style="edgeStyle=none;html=1;exitX=1;exitY=0.25;exitDx=0;exitDy=0;entryX=0;entryY=0.5;entryDx=0;entryDy=0;strokeColor=light-dark(#666666,#FAFAFA);strokeWidth=1;startArrow=none;startFill=0;fillColor=#f5f5f5;" parent="1" source="19" target="114" edge="1">
                    <mxGeometry relative="1" as="geometry">
                        <Array as="points">
                            <mxPoint x="280" y="793"/>
                            <mxPoint x="280" y="623"/>
                        </Array>
                    </mxGeometry>
                </mxCell>
                <mxCell id="136" style="edgeStyle=none;html=1;exitX=1;exitY=0.75;exitDx=0;exitDy=0;entryX=0;entryY=0.5;entryDx=0;entryDy=0;strokeColor=light-dark(#666666,#FAFAFA);strokeWidth=1;fontSize=8;startArrow=none;startFill=0;fillColor=#f5f5f5;" parent="1" source="19" target="118" edge="1">
                    <mxGeometry relative="1" as="geometry">
                        <Array as="points">
                            <mxPoint x="290" y="823"/>
                            <mxPoint x="290" y="653"/>
                        </Array>
                    </mxGeometry>
                </mxCell>
                <mxCell id="138" style="edgeStyle=none;html=1;exitX=1;exitY=0.75;exitDx=0;exitDy=0;entryX=0.75;entryY=1;entryDx=0;entryDy=0;strokeColor=light-dark(#666666,#FFFFFF);strokeWidth=1;fontSize=8;startArrow=none;startFill=0;fillColor=#f5f5f5;" parent="1" source="19" target="119" edge="1">
                    <mxGeometry relative="1" as="geometry">
                        <Array as="points">
                            <mxPoint x="355" y="823"/>
                        </Array>
                    </mxGeometry>
                </mxCell>
                <mxCell id="19" value="LattePanda Delta 3" style="rounded=0;whiteSpace=wrap;html=1;fillColor=#008a00;fontColor=#ffffff;strokeColor=#005700;" parent="1" vertex="1">
                    <mxGeometry x="150" y="778" width="120" height="60" as="geometry"/>
                </mxCell>
                <mxCell id="47" style="edgeStyle=none;html=1;exitX=1;exitY=0.25;exitDx=0;exitDy=0;entryX=0;entryY=0.5;entryDx=0;entryDy=0;" parent="1" source="26" target="4" edge="1">
                    <mxGeometry relative="1" as="geometry">
                        <Array as="points">
                            <mxPoint x="269" y="687"/>
                            <mxPoint x="271" y="214"/>
                        </Array>
                        <mxPoint x="280" y="238" as="targetPoint"/>
                    </mxGeometry>
                </mxCell>
                <mxCell id="26" value="Power distribution board" style="rounded=0;whiteSpace=wrap;html=1;fillColor=#60a917;fontColor=#ffffff;strokeColor=#2D7600;" parent="1" vertex="1">
                    <mxGeometry x="130" y="677" width="120" height="40" as="geometry"/>
                </mxCell>
                <mxCell id="13" value="Bigtreetech 5-inch HDMI Display" style="rounded=0;whiteSpace=wrap;html=1;fillColor=#0050ef;fontColor=#ffffff;strokeColor=#001DBC;" parent="1" vertex="1">
                    <mxGeometry x="305" y="254" width="120" height="40" as="geometry"/>
                </mxCell>
                <mxCell id="56" style="edgeStyle=none;html=1;exitX=1;exitY=0.5;exitDx=0;exitDy=0;fillColor=#e51400;strokeColor=#B20000;strokeWidth=2;entryX=0.75;entryY=0;entryDx=0;entryDy=0;" parent="1" source="17" target="26" edge="1">
                    <mxGeometry relative="1" as="geometry">
                        <mxPoint x="240" y="658" as="targetPoint"/>
                        <mxPoint x="240.22000000000003" y="608.6899999999999" as="sourcePoint"/>
                        <Array as="points">
                            <mxPoint x="220" y="608"/>
                        </Array>
                    </mxGeometry>
                </mxCell>
                <mxCell id="65" style="edgeStyle=none;html=1;exitX=0.5;exitY=0;exitDx=0;exitDy=0;entryX=0.127;entryY=1.073;entryDx=0;entryDy=0;fillColor=#e51400;strokeColor=#B20000;strokeWidth=2;entryPerimeter=0;" parent="1" source="108" target="13" edge="1">
                    <mxGeometry relative="1" as="geometry">
                        <Array as="points"/>
                    </mxGeometry>
                </mxCell>
                <mxCell id="66" style="edgeStyle=none;html=1;exitX=0.75;exitY=0;exitDx=0;exitDy=0;fillColor=#e51400;strokeColor=#B20000;strokeWidth=2;" parent="1" source="108" edge="1">
                    <mxGeometry relative="1" as="geometry">
                        <Array as="points">
                            <mxPoint x="340" y="429"/>
                            <mxPoint x="453" y="429"/>
                        </Array>
                        <mxPoint x="453" y="294" as="targetPoint"/>
                    </mxGeometry>
                </mxCell>
                <mxCell id="73" value="NeoPixel LED strip chain" style="rounded=0;whiteSpace=wrap;html=1;fillColor=#fa6800;fontColor=#000000;strokeColor=#C73500;" parent="1" vertex="1">
                    <mxGeometry x="570" y="695" width="160" height="50" as="geometry"/>
                </mxCell>
                <mxCell id="74" style="edgeStyle=none;html=1;exitX=1;exitY=0.75;exitDx=0;exitDy=0;entryX=0;entryY=0.5;entryDx=0;entryDy=0;" parent="1" source="26" target="73" edge="1">
                    <mxGeometry relative="1" as="geometry">
                        <mxPoint x="580" y="598" as="targetPoint"/>
                        <Array as="points">
                            <mxPoint x="316" y="707"/>
                            <mxPoint x="316" y="720"/>
                        </Array>
                        <mxPoint x="280" y="788" as="sourcePoint"/>
                    </mxGeometry>
                </mxCell>
                <mxCell id="79" style="edgeStyle=none;html=1;exitX=0.5;exitY=1;exitDx=0;exitDy=0;startArrow=classic;startFill=1;" parent="1" source="76" edge="1">
                    <mxGeometry relative="1" as="geometry">
                        <mxPoint x="240" y="768" as="sourcePoint"/>
                        <mxPoint x="220" y="781" as="targetPoint"/>
                    </mxGeometry>
                </mxCell>
                <mxCell id="76" value="BNO055 IMU" style="rounded=0;whiteSpace=wrap;html=1;fillColor=#008a00;fontColor=#ffffff;strokeColor=#005700;" parent="1" vertex="1">
                    <mxGeometry x="190" y="717" width="60" height="34" as="geometry"/>
                </mxCell>
                <mxCell id="78" style="edgeStyle=none;html=1;exitX=0.086;exitY=0.031;exitDx=0;exitDy=0;entryX=0.25;entryY=1;entryDx=0;entryDy=0;exitPerimeter=0;" parent="1" source="19" target="26" edge="1">
                    <mxGeometry relative="1" as="geometry"/>
                </mxCell>
                <mxCell id="108" value="USB hub" style="rounded=0;whiteSpace=wrap;html=1;" parent="1" vertex="1">
                    <mxGeometry x="280" y="488" width="80" height="30" as="geometry"/>
                </mxCell>
                <mxCell id="120" style="edgeStyle=none;html=1;exitX=1;exitY=0.5;exitDx=0;exitDy=0;entryX=0.717;entryY=1;entryDx=0;entryDy=0;strokeColor=light-dark(#FAFAFA,#FFFFFF);strokeWidth=1;startArrow=none;startFill=0;entryPerimeter=0;" parent="1" source="112" target="13" edge="1">
                    <mxGeometry relative="1" as="geometry">
                        <Array as="points">
                            <mxPoint x="391" y="593"/>
                        </Array>
                    </mxGeometry>
                </mxCell>
                <mxCell id="112" value="&lt;span style=&quot;font-size: 10px;&quot;&gt;eDP-HDMI adapter&lt;/span&gt;" style="rounded=0;whiteSpace=wrap;html=1;" parent="1" vertex="1">
                    <mxGeometry x="310" y="578" width="60" height="30" as="geometry"/>
                </mxCell>
                <mxCell id="121" style="edgeStyle=none;html=1;exitX=1;exitY=0.5;exitDx=0;exitDy=0;entryX=0.5;entryY=1;entryDx=0;entryDy=0;strokeColor=light-dark(#FAFAFA,#EDEDED);strokeWidth=1;startArrow=none;startFill=0;" parent="1" source="114" target="14" edge="1">
                    <mxGeometry relative="1" as="geometry">
                        <Array as="points">
                            <mxPoint x="490" y="623"/>
                        </Array>
                    </mxGeometry>
                </mxCell>
                <mxCell id="114" value="HDMI port" style="rounded=0;whiteSpace=wrap;html=1;" parent="1" vertex="1">
                    <mxGeometry x="310" y="608" width="60" height="30" as="geometry"/>
                </mxCell>
                <mxCell id="139" style="edgeStyle=none;html=1;exitX=1;exitY=0.5;exitDx=0;exitDy=0;entryX=0.75;entryY=1;entryDx=0;entryDy=0;strokeColor=light-dark(#2D7600,#FFFFFF);strokeWidth=1;fontSize=8;startArrow=none;startFill=0;fillColor=#60a917;" parent="1" source="118" target="8" edge="1">
                    <mxGeometry relative="1" as="geometry">
                        <Array as="points">
                            <mxPoint x="380" y="653"/>
                        </Array>
                    </mxGeometry>
                </mxCell>
                <mxCell id="118" value="USB port" style="rounded=0;whiteSpace=wrap;html=1;" parent="1" vertex="1">
                    <mxGeometry x="310" y="638" width="60" height="30" as="geometry"/>
                </mxCell>
                <mxCell id="141" style="edgeStyle=none;html=1;exitX=1;exitY=0.5;exitDx=0;exitDy=0;strokeColor=light-dark(#FAFAFA,#F7F7F7);strokeWidth=1;fontSize=8;startArrow=none;startFill=0;" parent="1" source="119" edge="1">
                    <mxGeometry relative="1" as="geometry">
                        <Array as="points">
                            <mxPoint x="469" y="683"/>
                        </Array>
                        <mxPoint x="469" y="362" as="targetPoint"/>
                    </mxGeometry>
                </mxCell>
                <mxCell id="119" value="USB port" style="rounded=0;whiteSpace=wrap;html=1;" parent="1" vertex="1">
                    <mxGeometry x="310" y="668" width="60" height="30" as="geometry"/>
                </mxCell>
                <mxCell id="8" value="ELP OV2710 camera w/ fisheye + IR lights" style="rounded=0;whiteSpace=wrap;html=1;" parent="1" vertex="1">
                    <mxGeometry x="290" y="324" width="120" height="40" as="geometry"/>
                </mxCell>
                <mxCell id="5" value="BY-MM1 Microphone with USB adapter" style="rounded=0;whiteSpace=wrap;html=1;" parent="1" vertex="1">
                    <mxGeometry x="430" y="324" width="120" height="40" as="geometry"/>
                </mxCell>
                <mxCell id="134" style="edgeStyle=none;html=1;exitX=1;exitY=0.5;exitDx=0;exitDy=0;entryX=0;entryY=0.5;entryDx=0;entryDy=0;strokeColor=light-dark(#666666,#FFFFFF);strokeWidth=1;fontSize=8;startArrow=none;startFill=0;fillColor=#f5f5f5;" parent="1" source="19" target="112" edge="1">
                    <mxGeometry relative="1" as="geometry">
                        <Array as="points">
                            <mxPoint x="286" y="808"/>
                            <mxPoint x="286" y="593"/>
                        </Array>
                        <mxPoint x="295" y="742" as="sourcePoint"/>
                    </mxGeometry>
                </mxCell>
                <mxCell id="22" value="&lt;font style=&quot;&quot;&gt;Speaker&lt;/font&gt;" style="rounded=0;whiteSpace=wrap;html=1;" parent="1" vertex="1">
                    <mxGeometry x="570" y="558" width="160" height="40" as="geometry"/>
                </mxCell>
                <mxCell id="144" value="4G Modem" style="rounded=0;whiteSpace=wrap;html=1;fillColor=#008a00;fontColor=#ffffff;strokeColor=#005700;" parent="1" vertex="1">
                    <mxGeometry x="204" y="488" width="57" height="34" as="geometry"/>
                </mxCell>
                <mxCell id="145" style="edgeStyle=none;html=1;exitX=1;exitY=0.25;exitDx=0;exitDy=0;entryX=0.5;entryY=1;entryDx=0;entryDy=0;strokeColor=#B20000;strokeWidth=2;startArrow=none;startFill=0;fillColor=#e51400;" parent="1" source="18" target="144" edge="1">
                    <mxGeometry relative="1" as="geometry">
                        <Array as="points">
                            <mxPoint x="232" y="550"/>
                        </Array>
                        <mxPoint x="200" y="580" as="sourcePoint"/>
                        <mxPoint x="330" y="528" as="targetPoint"/>
                    </mxGeometry>
                </mxCell>
                <mxCell id="146" value="40mm cooler fan" style="rounded=0;whiteSpace=wrap;html=1;fillColor=#fa6800;fontColor=#000000;strokeColor=#C73500;" parent="1" vertex="1">
                    <mxGeometry x="440" y="153" width="120" height="33" as="geometry"/>
                </mxCell>
            </root>
        </mxGraphModel>
    </diagram>
</mxfile>